<svg height="512pt" viewBox="0 0 512 512" width="512pt" xmlns="http://www.w3.org/2000/svg"><path d="m315.996094 512c-6.28125 0-12.132813-3.976562-14.230469-10.261719l-30-90c-2.617187-7.859375 1.628906-16.351562 9.488281-18.972656s16.355469 1.628906 18.972656 9.488281l30 90c2.621094 7.855469-1.628906 16.351563-9.484374 18.972656-1.574219.523438-3.175782.773438-4.746094.773438zm0 0" fill="#272428"/><path d="m196 512c-1.570312 0-3.171875-.25-4.746094-.773438-7.855468-2.621093-12.105468-11.117187-9.484375-18.972656l30-90c2.617188-7.859375 11.113281-12.109375 18.972657-9.488281 7.859374 2.621094 12.105468 11.113281 9.488281 18.972656l-30 90c-2.097657 6.285157-7.949219 10.261719-14.230469 10.261719zm0 0" fill="#272428"/><path d="m375.996094 511.996094h-239.996094c-8.285156 0-15-6.714844-15-15s6.714844-15 15-15h239.996094c8.285156 0 15 6.714844 15 15s-6.714844 15-15 15zm0 0" fill="#57545c"/><path d="m496.996094 361.996094h-481.996094c-8.285156 0-15-6.714844-15-15 0-8.28125 6.714844-15 15-15h481.996094c8.285156 0 15 6.71875 15 15 0 8.285156-6.714844 15-15 15zm0 0" fill="#c9c6ce"/><path d="m466.996094 421.996094h-421.996094c-24.8125 0-45-20.1875-45-45v-331.996094c0-24.8125 20.1875-45 45-45h421.996094c24.8125 0 45 20.1875 45 45v331.996094c0 24.8125-20.1875 45-45 45zm-421.996094-391.996094c-8.269531 0-15 6.730469-15 15v331.996094c0 8.273437 6.730469 15 15 15h421.996094c8.269531 0 15-6.726563 15-15v-331.996094c0-8.269531-6.730469-15-15-15zm0 0" fill="#57545c"/><path d="m360.964844 135.011719c-.007813-.109375-.023438-.21875-.03125-.328125-.019532-.214844-.039063-.429688-.070313-.644532-.015625-.128906-.039062-.257812-.058593-.386718-.03125-.191406-.058594-.382813-.097657-.574219-.027343-.136719-.058593-.269531-.089843-.40625-.039063-.179687-.082032-.359375-.132813-.535156-.035156-.136719-.074219-.273438-.113281-.410157-.054688-.171874-.109375-.34375-.164063-.519531-.046875-.132812-.09375-.265625-.144531-.398437-.0625-.167969-.128906-.339844-.199219-.507813-.050781-.128906-.101562-.253906-.160156-.382812-.074219-.171875-.15625-.339844-.238281-.507813-.058594-.117187-.113282-.238281-.175782-.355468-.089843-.171876-.1875-.339844-.285156-.507813-.0625-.109375-.121094-.222656-.1875-.328125-.109375-.183594-.226562-.359375-.347656-.539062-.058594-.085938-.113281-.179688-.171875-.265626-.164063-.230468-.335937-.460937-.507813-.683593-.023437-.027344-.046874-.058594-.070312-.089844-.199219-.25-.40625-.492187-.621094-.730469-.074218-.078125-.148437-.152344-.222656-.230468-.148438-.152344-.292969-.308594-.449219-.457032-.097656-.09375-.199219-.183594-.296875-.277344-.140625-.125-.277344-.253906-.421875-.375-.109375-.09375-.222656-.183593-.335937-.273437-.140625-.113281-.28125-.222656-.425782-.332031-.121093-.089844-.242187-.175782-.367187-.261719-.085937-.058594-.171875-.125-.261719-.183594l-90-60c-5.039062-3.359375-11.601562-3.359375-16.640625 0l-90 60c-.089843.058594-.171875.125-.261719.183594-.125.089844-.246093.171875-.367187.261719-.144531.109375-.285156.21875-.425781.332031-.109375.089844-.226563.179687-.335938.273437-.144531.121094-.28125.25-.421875.378907-.097656.089843-.199219.179687-.296875.269531-.152344.152344-.300781.308594-.449218.464844-.074219.074218-.148438.148437-.21875.226562-.21875.238282-.425782.480469-.625.730469-.023438.03125-.042969.0625-.066407.089844-.175781.222656-.347656.449219-.507812.683593-.0625.085938-.117188.179688-.175781.265626-.117188.179687-.238282.355468-.347657.539062-.066406.105469-.125.21875-.1875.328125-.097656.167969-.195312.335937-.285156.507813-.058594.117187-.117187.238281-.175781.355468-.082032.167969-.164063.335938-.238282.507813-.054687.128906-.109374.253906-.160156.382812-.070312.167969-.136718.335938-.199218.507813-.050782.132812-.097657.265625-.140626.398437-.058593.175781-.113281.347657-.164062.523438-.042969.132812-.082031.269531-.117188.40625-.046874.175781-.089843.355469-.132812.539062-.027344.132813-.058594.269531-.085938.402344-.039062.191406-.070312.382813-.101562.574219-.019531.128906-.042969.257812-.058594.386718-.027344.214844-.046875.429688-.066406.644532-.011719.113281-.023438.21875-.03125.332031-.019531.324219-.035156.65625-.035156.984375v90c0 5.015625 2.507812 9.699219 6.679687 12.480469l90 60c.050781.03125.105469.0625.160157.097656.175781.113281.355468.222656.539062.332031.132812.078125.261719.15625.394531.230469.050781.027344.097657.058594.148438.085937.054687.027344.109375.046876.164062.074219.492188.257813.996094.492188 1.511719.691407.011719.003906.019531.007812.03125.011718.519531.199219 1.046875.359375 1.578125.496094.101563.027344.199219.054688.300781.078125.511719.125 1.03125.21875 1.554688.289063.101562.011718.203125.019531.304687.03125.539063.058593 1.082031.101562 1.628907.101562h.003906.003906c.546875 0 1.089844-.042969 1.628906-.101562.101563-.011719.203125-.019532.304688-.03125.523437-.070313 1.042968-.164063 1.554687-.289063.101563-.023437.199219-.050781.300781-.078125.53125-.136719 1.058594-.296875 1.578126-.496094.011718-.003906.023437-.011718.039062-.015625.511719-.199219 1.011719-.433593 1.503906-.6875.054688-.027343.113282-.046875.164063-.078125.050781-.027344.101562-.058594.148437-.085937.132813-.070313.265625-.152344.394532-.226563.183593-.109375.367187-.21875.542968-.332031.054688-.035156.105469-.0625.160156-.097656l89.996094-60c4.175782-2.78125 6.683594-7.464844 6.683594-12.480469v-90c-.003906-.332031-.015625-.660156-.035156-.988281zm-104.96875-40.984375 62.960937 41.972656-62.957031 41.96875-62.960938-41.96875zm-74.996094 70 60 40v53.941406l-60-40zm149.996094 53.941406-60 40v-53.941406l60-40zm0 0" fill="#0089ff"/></svg>